<mxfile host="app.diagrams.net" modified="2021-09-23T02:48:54.815Z" agent="5.0 (Macintosh; Intel Mac OS X 10_15_7) AppleWebKit/537.36 (KHTML, like Gecko) Chrome/93.0.4577.82 Safari/537.36" etag="pD-gwielOGJNvWnoWscB" version="15.2.9" type="github">
  <diagram id="E-KL4lr1iu8_QmoXWTUt" name="Page-1">
    <mxGraphModel dx="1780" dy="1070" grid="1" gridSize="10" guides="1" tooltips="1" connect="1" arrows="1" fold="1" page="1" pageScale="1" pageWidth="850" pageHeight="1100" math="0" shadow="0">
      <root>
        <mxCell id="0" />
        <mxCell id="1" parent="0" />
        <mxCell id="4ki-_XNwnEhgj2r2RjUE-1" value="Band" style="whiteSpace=wrap;html=1;align=center;" vertex="1" parent="1">
          <mxGeometry x="135" y="160" width="100" height="40" as="geometry" />
        </mxCell>
        <mxCell id="4ki-_XNwnEhgj2r2RjUE-27" value="" style="edgeStyle=orthogonalEdgeStyle;rounded=0;orthogonalLoop=1;jettySize=auto;html=1;endArrow=none;endFill=0;strokeWidth=1;" edge="1" parent="1" source="4ki-_XNwnEhgj2r2RjUE-2" target="4ki-_XNwnEhgj2r2RjUE-16">
          <mxGeometry relative="1" as="geometry" />
        </mxCell>
        <mxCell id="4ki-_XNwnEhgj2r2RjUE-2" value="Artist" style="whiteSpace=wrap;html=1;align=center;" vertex="1" parent="1">
          <mxGeometry x="135" y="370" width="100" height="40" as="geometry" />
        </mxCell>
        <mxCell id="4ki-_XNwnEhgj2r2RjUE-3" value="Musician" style="whiteSpace=wrap;html=1;align=center;" vertex="1" parent="1">
          <mxGeometry x="25" y="507" width="100" height="40" as="geometry" />
        </mxCell>
        <mxCell id="4ki-_XNwnEhgj2r2RjUE-55" style="edgeStyle=orthogonalEdgeStyle;rounded=0;orthogonalLoop=1;jettySize=auto;html=1;entryX=0;entryY=0.5;entryDx=0;entryDy=0;startArrow=none;startFill=0;endArrow=none;endFill=0;strokeWidth=1;" edge="1" parent="1" source="4ki-_XNwnEhgj2r2RjUE-4" target="4ki-_XNwnEhgj2r2RjUE-20">
          <mxGeometry relative="1" as="geometry" />
        </mxCell>
        <mxCell id="4ki-_XNwnEhgj2r2RjUE-4" value="Singer" style="whiteSpace=wrap;html=1;align=center;" vertex="1" parent="1">
          <mxGeometry x="255" y="507" width="100" height="40" as="geometry" />
        </mxCell>
        <mxCell id="4ki-_XNwnEhgj2r2RjUE-25" style="edgeStyle=orthogonalEdgeStyle;rounded=0;orthogonalLoop=1;jettySize=auto;html=1;exitX=0.5;exitY=0;exitDx=0;exitDy=0;entryX=0.5;entryY=1;entryDx=0;entryDy=0;endArrow=none;endFill=0;strokeWidth=1;" edge="1" parent="1" source="4ki-_XNwnEhgj2r2RjUE-5" target="4ki-_XNwnEhgj2r2RjUE-16">
          <mxGeometry relative="1" as="geometry" />
        </mxCell>
        <mxCell id="4ki-_XNwnEhgj2r2RjUE-57" style="edgeStyle=orthogonalEdgeStyle;rounded=0;orthogonalLoop=1;jettySize=auto;html=1;entryX=0.5;entryY=1;entryDx=0;entryDy=0;startArrow=none;startFill=0;endArrow=none;endFill=0;strokeWidth=1;" edge="1" parent="1" source="4ki-_XNwnEhgj2r2RjUE-5" target="4ki-_XNwnEhgj2r2RjUE-14">
          <mxGeometry relative="1" as="geometry">
            <Array as="points">
              <mxPoint x="185" y="580" />
              <mxPoint x="500" y="580" />
            </Array>
          </mxGeometry>
        </mxCell>
        <mxCell id="4ki-_XNwnEhgj2r2RjUE-5" value="Composer" style="whiteSpace=wrap;html=1;align=center;" vertex="1" parent="1">
          <mxGeometry x="135" y="507" width="100" height="40" as="geometry" />
        </mxCell>
        <mxCell id="4ki-_XNwnEhgj2r2RjUE-21" value="" style="edgeStyle=orthogonalEdgeStyle;rounded=0;orthogonalLoop=1;jettySize=auto;html=1;endArrow=none;endFill=0;" edge="1" parent="1" source="4ki-_XNwnEhgj2r2RjUE-6" target="4ki-_XNwnEhgj2r2RjUE-19">
          <mxGeometry relative="1" as="geometry" />
        </mxCell>
        <mxCell id="4ki-_XNwnEhgj2r2RjUE-6" value="Instrument" style="rounded=1;arcSize=10;whiteSpace=wrap;html=1;align=center;" vertex="1" parent="1">
          <mxGeometry x="25" y="680" width="100" height="40" as="geometry" />
        </mxCell>
        <mxCell id="4ki-_XNwnEhgj2r2RjUE-34" style="edgeStyle=orthogonalEdgeStyle;rounded=0;orthogonalLoop=1;jettySize=auto;html=1;entryX=1;entryY=0.5;entryDx=0;entryDy=0;startArrow=none;startFill=0;endArrow=classic;endFill=1;strokeWidth=1;" edge="1" parent="1" source="4ki-_XNwnEhgj2r2RjUE-7" target="4ki-_XNwnEhgj2r2RjUE-12">
          <mxGeometry relative="1" as="geometry" />
        </mxCell>
        <mxCell id="4ki-_XNwnEhgj2r2RjUE-58" style="edgeStyle=orthogonalEdgeStyle;rounded=0;orthogonalLoop=1;jettySize=auto;html=1;exitX=1;exitY=0.5;exitDx=0;exitDy=0;entryX=0;entryY=0.5;entryDx=0;entryDy=0;startArrow=none;startFill=0;endArrow=none;endFill=0;strokeWidth=1;" edge="1" parent="1" source="4ki-_XNwnEhgj2r2RjUE-7" target="4ki-_XNwnEhgj2r2RjUE-13">
          <mxGeometry relative="1" as="geometry" />
        </mxCell>
        <mxCell id="4ki-_XNwnEhgj2r2RjUE-7" value="Song" style="whiteSpace=wrap;html=1;align=center;" vertex="1" parent="1">
          <mxGeometry x="455" y="160" width="100" height="40" as="geometry" />
        </mxCell>
        <mxCell id="4ki-_XNwnEhgj2r2RjUE-33" value="" style="edgeStyle=orthogonalEdgeStyle;rounded=0;orthogonalLoop=1;jettySize=auto;html=1;endArrow=classic;endFill=1;strokeWidth=5;" edge="1" parent="1" source="4ki-_XNwnEhgj2r2RjUE-9" target="4ki-_XNwnEhgj2r2RjUE-13">
          <mxGeometry relative="1" as="geometry" />
        </mxCell>
        <mxCell id="4ki-_XNwnEhgj2r2RjUE-9" value="Rendition" style="whiteSpace=wrap;html=1;align=center;strokeColor=default;strokeWidth=5;fillColor=none;gradientColor=none;" vertex="1" parent="1">
          <mxGeometry x="735" y="160" width="100" height="40" as="geometry" />
        </mxCell>
        <mxCell id="4ki-_XNwnEhgj2r2RjUE-35" style="edgeStyle=orthogonalEdgeStyle;rounded=0;orthogonalLoop=1;jettySize=auto;html=1;entryX=1;entryY=0.5;entryDx=0;entryDy=0;startArrow=none;startFill=0;endArrow=none;endFill=0;strokeWidth=1;" edge="1" parent="1" source="4ki-_XNwnEhgj2r2RjUE-12" target="4ki-_XNwnEhgj2r2RjUE-1">
          <mxGeometry relative="1" as="geometry" />
        </mxCell>
        <mxCell id="4ki-_XNwnEhgj2r2RjUE-12" value="Recorded By" style="shape=rhombus;perimeter=rhombusPerimeter;whiteSpace=wrap;html=1;align=center;strokeColor=default;strokeWidth=1;fillColor=none;gradientColor=none;" vertex="1" parent="1">
          <mxGeometry x="285" y="150" width="120" height="60" as="geometry" />
        </mxCell>
        <mxCell id="4ki-_XNwnEhgj2r2RjUE-13" value="Forms the basis of" style="shape=rhombus;perimeter=rhombusPerimeter;whiteSpace=wrap;html=1;align=center;strokeColor=default;strokeWidth=5;fillColor=none;gradientColor=none;" vertex="1" parent="1">
          <mxGeometry x="585" y="150" width="120" height="60" as="geometry" />
        </mxCell>
        <mxCell id="4ki-_XNwnEhgj2r2RjUE-32" style="edgeStyle=orthogonalEdgeStyle;rounded=0;orthogonalLoop=1;jettySize=auto;html=1;entryX=0.445;entryY=1.021;entryDx=0;entryDy=0;entryPerimeter=0;endArrow=none;endFill=0;strokeWidth=5;" edge="1" parent="1" source="4ki-_XNwnEhgj2r2RjUE-14" target="4ki-_XNwnEhgj2r2RjUE-7">
          <mxGeometry relative="1" as="geometry" />
        </mxCell>
        <mxCell id="4ki-_XNwnEhgj2r2RjUE-14" value="Associated with" style="shape=rhombus;perimeter=rhombusPerimeter;whiteSpace=wrap;html=1;align=center;strokeColor=default;strokeWidth=1;fillColor=none;gradientColor=none;" vertex="1" parent="1">
          <mxGeometry x="440" y="270" width="120" height="60" as="geometry" />
        </mxCell>
        <mxCell id="4ki-_XNwnEhgj2r2RjUE-29" style="edgeStyle=orthogonalEdgeStyle;rounded=0;orthogonalLoop=1;jettySize=auto;html=1;endArrow=none;endFill=0;strokeWidth=1;" edge="1" parent="1" source="4ki-_XNwnEhgj2r2RjUE-15" target="4ki-_XNwnEhgj2r2RjUE-2">
          <mxGeometry relative="1" as="geometry" />
        </mxCell>
        <mxCell id="4ki-_XNwnEhgj2r2RjUE-31" style="edgeStyle=orthogonalEdgeStyle;rounded=0;orthogonalLoop=1;jettySize=auto;html=1;entryX=0.5;entryY=1;entryDx=0;entryDy=0;endArrow=none;endFill=0;strokeWidth=5;" edge="1" parent="1" source="4ki-_XNwnEhgj2r2RjUE-15" target="4ki-_XNwnEhgj2r2RjUE-1">
          <mxGeometry relative="1" as="geometry" />
        </mxCell>
        <mxCell id="4ki-_XNwnEhgj2r2RjUE-15" value="In" style="shape=rhombus;perimeter=rhombusPerimeter;whiteSpace=wrap;html=1;align=center;strokeColor=default;strokeWidth=1;fillColor=none;gradientColor=none;" vertex="1" parent="1">
          <mxGeometry x="125" y="260" width="120" height="60" as="geometry" />
        </mxCell>
        <mxCell id="4ki-_XNwnEhgj2r2RjUE-24" style="edgeStyle=orthogonalEdgeStyle;rounded=0;orthogonalLoop=1;jettySize=auto;html=1;exitX=0;exitY=0.5;exitDx=0;exitDy=0;entryX=0.5;entryY=0;entryDx=0;entryDy=0;endArrow=none;endFill=0;strokeWidth=1;" edge="1" parent="1" source="4ki-_XNwnEhgj2r2RjUE-16" target="4ki-_XNwnEhgj2r2RjUE-3">
          <mxGeometry relative="1" as="geometry" />
        </mxCell>
        <mxCell id="4ki-_XNwnEhgj2r2RjUE-26" style="edgeStyle=orthogonalEdgeStyle;rounded=0;orthogonalLoop=1;jettySize=auto;html=1;endArrow=none;endFill=0;strokeWidth=1;" edge="1" parent="1" source="4ki-_XNwnEhgj2r2RjUE-16" target="4ki-_XNwnEhgj2r2RjUE-4">
          <mxGeometry relative="1" as="geometry" />
        </mxCell>
        <mxCell id="4ki-_XNwnEhgj2r2RjUE-16" value="IsA" style="shape=rhombus;perimeter=rhombusPerimeter;whiteSpace=wrap;html=1;align=center;strokeColor=default;strokeWidth=1;fillColor=none;gradientColor=none;" vertex="1" parent="1">
          <mxGeometry x="155" y="437" width="60" height="60" as="geometry" />
        </mxCell>
        <mxCell id="4ki-_XNwnEhgj2r2RjUE-54" style="edgeStyle=orthogonalEdgeStyle;rounded=0;orthogonalLoop=1;jettySize=auto;html=1;entryX=0.5;entryY=1;entryDx=0;entryDy=0;startArrow=none;startFill=0;endArrow=none;endFill=0;strokeWidth=1;" edge="1" parent="1" source="4ki-_XNwnEhgj2r2RjUE-18" target="4ki-_XNwnEhgj2r2RjUE-9">
          <mxGeometry relative="1" as="geometry" />
        </mxCell>
        <mxCell id="4ki-_XNwnEhgj2r2RjUE-18" value="Performed by" style="shape=rhombus;perimeter=rhombusPerimeter;whiteSpace=wrap;html=1;align=center;strokeColor=default;strokeWidth=1;fillColor=none;gradientColor=none;" vertex="1" parent="1">
          <mxGeometry x="180" y="590" width="120" height="60" as="geometry" />
        </mxCell>
        <mxCell id="4ki-_XNwnEhgj2r2RjUE-22" value="" style="edgeStyle=orthogonalEdgeStyle;rounded=0;orthogonalLoop=1;jettySize=auto;html=1;endArrow=none;endFill=0;strokeWidth=5;" edge="1" parent="1" source="4ki-_XNwnEhgj2r2RjUE-19" target="4ki-_XNwnEhgj2r2RjUE-3">
          <mxGeometry relative="1" as="geometry" />
        </mxCell>
        <mxCell id="4ki-_XNwnEhgj2r2RjUE-19" value="Plays" style="shape=rhombus;perimeter=rhombusPerimeter;whiteSpace=wrap;html=1;align=center;strokeColor=default;strokeWidth=1;fillColor=none;gradientColor=none;" vertex="1" parent="1">
          <mxGeometry x="27.5" y="590" width="95" height="60" as="geometry" />
        </mxCell>
        <mxCell id="4ki-_XNwnEhgj2r2RjUE-56" style="edgeStyle=orthogonalEdgeStyle;rounded=0;orthogonalLoop=1;jettySize=auto;html=1;exitX=0.5;exitY=0;exitDx=0;exitDy=0;entryX=0.25;entryY=1;entryDx=0;entryDy=0;startArrow=none;startFill=0;endArrow=none;endFill=0;strokeWidth=1;" edge="1" parent="1" source="4ki-_XNwnEhgj2r2RjUE-20" target="4ki-_XNwnEhgj2r2RjUE-9">
          <mxGeometry relative="1" as="geometry" />
        </mxCell>
        <mxCell id="4ki-_XNwnEhgj2r2RjUE-20" value="Sings in" style="shape=rhombus;perimeter=rhombusPerimeter;whiteSpace=wrap;html=1;align=center;strokeColor=default;strokeWidth=1;fillColor=none;gradientColor=none;" vertex="1" parent="1">
          <mxGeometry x="585" y="497" width="120" height="60" as="geometry" />
        </mxCell>
        <mxCell id="4ki-_XNwnEhgj2r2RjUE-36" value="total overlap" style="text;html=1;align=center;verticalAlign=middle;resizable=0;points=[];autosize=1;strokeColor=none;fillColor=none;" vertex="1" parent="1">
          <mxGeometry x="205" y="437" width="80" height="20" as="geometry" />
        </mxCell>
        <mxCell id="4ki-_XNwnEhgj2r2RjUE-42" value="" style="shape=partialRectangle;fillColor=none;align=left;verticalAlign=middle;strokeColor=none;spacingLeft=34;rotatable=0;points=[[0,0.5],[1,0.5]];portConstraint=eastwest;dropTarget=0;" vertex="1" parent="1">
          <mxGeometry y="490" width="70" height="240" as="geometry" />
        </mxCell>
        <mxCell id="4ki-_XNwnEhgj2r2RjUE-43" value="" style="shape=partialRectangle;top=0;left=0;bottom=0;fillColor=none;stokeWidth=1;dashed=1;align=left;verticalAlign=middle;spacingLeft=4;spacingRight=4;overflow=hidden;rotatable=0;points=[];portConstraint=eastwest;part=1;" vertex="1" connectable="0" parent="4ki-_XNwnEhgj2r2RjUE-42">
          <mxGeometry width="23.333333333333332" height="240" as="geometry" />
        </mxCell>
        <mxCell id="4ki-_XNwnEhgj2r2RjUE-44" value="" style="shape=partialRectangle;fillColor=none;align=left;verticalAlign=middle;strokeColor=none;spacingLeft=34;rotatable=0;points=[[0,0.5],[1,0.5]];portConstraint=eastwest;dropTarget=0;" vertex="1" parent="1">
          <mxGeometry x="105" y="490" width="70" height="240" as="geometry" />
        </mxCell>
        <mxCell id="4ki-_XNwnEhgj2r2RjUE-45" value="" style="shape=partialRectangle;top=0;left=0;bottom=0;fillColor=none;stokeWidth=1;dashed=1;align=left;verticalAlign=middle;spacingLeft=4;spacingRight=4;overflow=hidden;rotatable=0;points=[];portConstraint=eastwest;part=1;" vertex="1" connectable="0" parent="4ki-_XNwnEhgj2r2RjUE-44">
          <mxGeometry width="23.333333333333332" height="240" as="geometry" />
        </mxCell>
        <mxCell id="4ki-_XNwnEhgj2r2RjUE-51" value="" style="line;strokeWidth=1;rotatable=0;dashed=1;labelPosition=right;align=left;verticalAlign=middle;spacingTop=0;spacingLeft=6;points=[];portConstraint=eastwest;fillColor=none;gradientColor=none;" vertex="1" parent="1">
          <mxGeometry x="25" y="720" width="105" height="10" as="geometry" />
        </mxCell>
        <mxCell id="4ki-_XNwnEhgj2r2RjUE-52" value="" style="line;strokeWidth=1;rotatable=0;dashed=1;labelPosition=right;align=left;verticalAlign=middle;spacingTop=0;spacingLeft=6;points=[];portConstraint=eastwest;fillColor=none;gradientColor=none;" vertex="1" parent="1">
          <mxGeometry x="23" y="483" width="105" height="10" as="geometry" />
        </mxCell>
        <mxCell id="4ki-_XNwnEhgj2r2RjUE-53" value="" style="line;strokeWidth=1;rotatable=0;dashed=0;labelPosition=right;align=left;verticalAlign=middle;spacingTop=0;spacingLeft=6;points=[];portConstraint=eastwest;fillColor=none;gradientColor=none;" vertex="1" parent="1">
          <mxGeometry x="130" y="615" width="52.5" height="10" as="geometry" />
        </mxCell>
      </root>
    </mxGraphModel>
  </diagram>
</mxfile>
